/* XPM */
static char * ea_xpm[] = {
"64 64 85 1 ",
"  c #001F24",
". c #001E26",
"X c #001F26",
"o c #011F27",
"O c #001F28",
"+ c #002025",
"@ c #002125",
"# c #002026",
"$ c #002027",
"% c #002127",
"& c #002128",
"* c #002029",
"= c #022028",
"- c #002329",
"; c #00222B",
": c #01262F",
"> c #00272F",
", c #002830",
"< c #022A36",
"1 c #002C37",
"2 c #002D3C",
"3 c #00323D",
"4 c #003744",
"5 c #003845",
"6 c #003A46",
"7 c #003B49",
"8 c #003E4B",
"9 c #003E4D",
"0 c #004A5D",
"q c #004B5E",
"w c #024B5E",
"e c #004C5E",
"r c #004D61",
"t c #005268",
"y c #01576E",
"u c #015D74",
"i c #01657F",
"p c #006C89",
"a c #00718F",
"s c #007191",
"d c #007392",
"f c #007694",
"g c #0082A6",
"h c #0085A8",
"j c #0187AC",
"k c #0088AC",
"l c #0091B8",
"z c #0196BE",
"x c #0196C0",
"c c #0098C1",
"v c #009BC4",
"b c #009AC5",
"n c #009FC7",
"m c #009DC8",
"M c #009FC9",
"N c #019FCC",
"B c #01A0CA",
"V c #00A7D4",
"C c #01ADDD",
"Z c #00B0E1",
"A c #00B4E5",
"S c #00B4E7",
"D c #00B8EB",
"F c #00BAEA",
"G c #00B9EC",
"H c #00BAED",
"J c #00B8EE",
"K c #02BDF0",
"L c #02BDF2",
"P c #00BEF2",
"I c #01C0F6",
"U c #00C3F7",
"Y c #00C3F9",
"T c #03C6FC",
"R c #00C7FE",
"E c #00C8FC",
"W c #00C9FD",
"Q c #00C8FE",
"! c #00C9FE",
"~ c #00C8FF",
"^ c #01C8FF",
"/ c #00C9FF",
"( c #02C9FF",
") c #00CAFF",
"_ c #01CAFF",
/* pixels */
"$$$$$$$$$$$$$$$$$$$$$$$$$$$$$$$$$$$$$$$$$$$$$$$$$$$$$$$$$$$$$$$$",
"$$$$$$$$$$$$$$$$$$$$$$$$$$$$$$$$$$$$$$$$$$$$$$$$$$$$$$$$$$$$$$$$",
"$$$$$$$$$$$$$$$$$$$$$$$$$$$$$$$$$$$$$$$$$$$$$$$$$$$$$$$$$$$$$$$$",
"$$$$$$$$$$$$$$$$$$$$$$$$$$$$$$$$$$$$$$$$$$$$$$$$$$$$$$$$$$$$$$$$",
"$$$$$$$$$$$$$$$$$$$$$$$$$$$$$$$$$$$$$$$$$$$$$$$$$$$$$$$$$$$$$$$$",
"$$$$$$$$$$$$$$$$$$$$$$$$$$$$$$$$$$$$$$$$$$$$$$$$$$$$$$$$$$$$$$$$",
"$$$$$$$$$$$$$$$$$$$$$$$$$$$$$$$$$$$$$$$$$$$$$$$$$$$$$$$$$$$$$$$$",
"$$$$$$$$$$$$$$$$$$$$$$$$$$$$$$$$$$$$$$$$$$$$$$$$$$$$$$$$$$$$$$$$",
"$$$$$$$$$$$$$$$$$$$$$$$$$$$$$$$$$$$$$$$$$$$$$$$$$$$$$$*$$$$$*$$$",
"$$$$$$X$$$$$$$$$$$$$$$$$$$$$$$$$$$$$$$$$$$$$$$$$$$$$$$$$X$$$$$$$",
"$$$$$$pfffffffffffffffffffffffffffffffffffffffffffffffff5$$X$$$$",
"*$*$$$J////////////////////////////////////////////////x$$$$X$$$",
"*$$$$$J///////////////////////////////////////////////A:$$$$$$$$",
"$$*$$$J//////////////////////////////////////////////Y8$$$$$$$$$",
"$$$$$$J//////////////////////////////////////////////u$$$$X$$$*$",
"$X$$X$J/////////////////////////////////////////////hX$$$X$$$$$$",
"$$$$$$J////////////////////////////////////////////V*$X$$$$$$$$$",
"$$$$$$J///////////////////////////////////////////K3$$$$$$$$$$$$",
"$$$$$$J//////////////////////////////////////////Rr$$$$$$$$$$$$$",
"$$$$$$J//////////////////////////////////////////s$$$$$X$$$$$$$$",
"$$$$$$J/////////////////////////////////////////v$$$$$$$$$$$$$$$",
"$$$$$$J////////////FMMNnMMMMMMMMMMMMMMMMMMMMMBMv1$$$$$$$$$$$$$$$",
"$$$$$$J////////////kX$$$$$$$$$$$$$$$$$$$$$$$$$$$$$$XX$$$$$$$$$$$",
"$$$$$$J////////////k$$$$$$$$$$$$$$$$$$$$$$$$$$$$$$$$*$$*$$$$$$$$",
"$$$$$$J////////////k$$$$$$$$$$$$$$$$$$$$$$$$$$$$$$X$$$$$$$$$$$$$",
"$$$$$$J////////////kX$X$$$$$$$$$$$$$$$$$$$$$$$$$$$$$$$$$$$$$$$$$",
"$$$$$$J////////////j$$X$$$$$$$$$$$$$$$$$$$$$$$$$$$$$$$$$$$$$$$$$",
"$$$$$$J//////////////////////////////////////////////z$$$$$$$$$$",
"$$$$$$J/////////////////////////////////////////////Z,$$$$$$$$$$",
"$$$$$$J////////////////////////////////////////////I7$$$$$$$$$$$",
"$$$$$$J////////////////////////////////////////////y$XX$$$$$$$$$",
"$$$$$$J///////////////////////////////////////////g$$$$$$$$$$$$$",
"$$$$$$J//////////////////////////////////////////V**$$$$$$$$$$$$",
"$$$$$$J/////////////////////////////////////////K3$$$$$$$$$$$$$$",
"$$$$$$J////////////////////////////////////////Rq$X$$$$$$$$$$$$$",
"$$$$$$J////////////////////////////////////////s**$$$$$$$$$$$$$$",
"$$$$$$J///////////////////////////////////////v$$$*X$$$$$$$$$$$$",
"$$$$$$J////////////j$$X$$$$$$$$$$$$$$$$$*$$$$$$$$$$$$$$$$$$$$$$$",
"$$$$$$J////////////kX$X$$$$$$$$$$$$$$$$$$$$$$$$$*$$$$$$$$$$$$$$$",
"$$$$$$J////////////k$$$$$$$$$$$$$$$$$$$$$$$$$$$$$$$$$X$$$$$$$$$$",
"$$$$$$J////////////k$$$$$$$$$$$$$$$$$$$$$$$$$$$$$X$$$$*$X$$XX$$X",
"$$$$$$J////////////k$$$X$$$$$$$$$$$$$$$$$$$$$$$$$$$$$X$$$$$$$$$$",
"$$$$$$J////////////cqqeqqqqqqqqqqqqqqqqqqqqqqqqqqqqqqqqq4$$X*$$X",
"$$$$$$J////////////////////////////////////////////////K2$$$$$$$",
"$$$$$$J////////////////////////////////////////////////q$$$$$$X$",
"$$$$$$J///////////////////////////////////////////////a$$$*$$$$$",
"$$$$$$J//////////////////////////////////////////////v$$$$X$$$$X",
"$$$$$$J/////////////////////////////////////////////A<$$$$$$*$$$",
"$$$$$$J////////////////////////////////////////////R9$$$$$$$$$$$",
"$$$$$$J////////////////////////////////////////////i$$$$$$$$$$$$",
"$*$$$$J///////////////////////////////////////////lX$$$$$$$$$$$$",
"$$$$$$F//////////////////////////////////////////C:$$$$$$$$$$$$$",
"$$$$$$J/////////////////////////////////////////I5$$$$$$$$$$$$$$",
"$$$*$$J/////////////////////////////////////////t$$$XX$*$$$$$$$$",
"$$$X$$$$$$$$$$$$$$$$$$$$$$$$$$$$$$$$$$$$$$$$$$$$$$$$$X$$$$$$$$$$",
"$$O$$$$$$$$$$$$$$$$$$$$$$$$$$$$$$$$$$$$$$$$$$$$$*$$$$$*$$$$$$$$$",
"$$$$$$$$$$$$$$$$$$$$$$$$$$$$$$$$$$$$$$$$$$$$$$$$$$$$$$$$$$$$$$$$",
"$$$$$$$$$$$$$$$$$$$$$$$$$$$$$$$$$$$$$$$$$$$$$$$$$$$$$$$$$$$$$$$$",
"$$$$$$$$$$$$$$$$$$$$$$$$$$$$$$$$$$$$$$$$$$$$$$$$$$$$$$$$$$$$$$$$",
"$$$$$$$$$$$$$$$$$$$$$$$$$$$$$$$$$$$$$$$$$$$$$$$$$$$$$$$$$$$$$$$$",
"$$$$$$$$$$$$$$$$$$$$$$$$$$$$$$$$$$$$$$$$$$$$$$$$$$$$$$$$$$$$$$$$",
"$$$$$$$$$$$$$$$$$$$$$$$$$$$$$$$$$$$$$$$$$$$$$$$$$$$$$$$$$$$$$$$$",
"$$$$$$$$$$$$$$$$$$$$$$$$$$$$$$$$$$$$$$$$$$$$$$$$$$$$$$$$$$$$$$$$",
"$$$$$$$$$$$$$$$$$$$$$$$$$$$$$$$$$$$$$$$$$$$$$$$$$$$$$$$$$$$$$$$$"
};
