/* XPM */
static char * no_xpm[] = {
"16 16 8 1 ",
"  c #001F24",
". c #002128",
"X c #003845",
"o c #004B5E",
"O c #007694",
"+ c #0088AC",
"@ c #00B8EE",
"# c #00C9FF",
/* pixels */
"                ",
"                ",
"                ",
"    ##     ##   ",
"    ###    ##   ",
"    ####   ##   ",
"    ## ##  ##   ",
"    ##  ## ##   ",
"    ##   ####   ",
"    ##    ###   ",
"    ##     ##   ",
"    ##     ##   ",
"    ##     ##   ",
"                ",
"                ",
"                "
};