/* XPM */
static char * no_xpm[] = {
"64 64 145 2 ",
"   c #001F24",
".  c #001E26",
"X  c #001F26",
"o  c #011F27",
"O  c #001F28",
"+  c #011F29",
"@  c #002024",
"#  c #002025",
"$  c #012025",
"%  c #002125",
"&  c #002027",
"*  c #002127",
"=  c #002128",
"-  c #002029",
";  c #002228",
":  c #00212A",
">  c #01232C",
",  c #01232D",
"<  c #00242D",
"1  c #00272E",
"2  c #00262F",
"3  c #01262F",
"4  c #00272F",
"5  c #012730",
"6  c #002832",
"7  c #022833",
"8  c #002A36",
"9  c #002C35",
"0  c #002D3A",
"q  c #012D3A",
"w  c #002E3B",
"e  c #01333E",
"r  c #00323F",
"t  c #013240",
"y  c #003441",
"u  c #003642",
"i  c #013743",
"p  c #003744",
"a  c #003A48",
"s  c #013C4A",
"d  c #013C4C",
"f  c #004253",
"g  c #004354",
"h  c #014455",
"j  c #004457",
"k  c #014558",
"l  c #014958",
"z  c #014A5D",
"x  c #004D5F",
"c  c #004F66",
"v  c #005065",
"b  c #005166",
"n  c #015369",
"m  c #005469",
"M  c #00556A",
"N  c #00566D",
"B  c #025A72",
"V  c #015D74",
"C  c #005C75",
"Z  c #005E74",
"A  c #005D76",
"S  c #015D76",
"D  c #005D77",
"F  c #005E76",
"G  c #005E77",
"H  c #006079",
"J  c #006279",
"K  c #00617A",
"L  c #01617A",
"P  c #00627B",
"I  c #01607C",
"U  c #00667F",
"Y  c #006581",
"T  c #006E89",
"R  c #006F8A",
"E  c #01708E",
"W  c #00718F",
"Q  c #007591",
"!  c #007593",
"~  c #007694",
"^  c #007795",
"/  c #007998",
"(  c #00789A",
")  c #01799B",
"_  c #0183A7",
"`  c #0085A8",
"'  c #0088AC",
"]  c #008BAF",
"[  c #008CB0",
"{  c #008DB1",
"}  c #018FB3",
"|  c #0096BB",
" . c #0093BE",
".. c #0095BD",
"X. c #0097BE",
"o. c #0098C1",
"O. c #019AC3",
"+. c #009BC7",
"@. c #009DC8",
"#. c #019EC9",
"$. c #009FC9",
"%. c #01A2CE",
"&. c #00A2D0",
"*. c #00A4D2",
"=. c #00A7D4",
"-. c #00A8D1",
";. c #00A8D3",
":. c #01A7D9",
">. c #00AAD8",
",. c #01ADDB",
"<. c #00AFDE",
"1. c #00B0DF",
"2. c #00B1DF",
"3. c #00AEE0",
"4. c #00B2E0",
"5. c #00B2E2",
"6. c #00B3E4",
"7. c #00B5E5",
"8. c #00B6E8",
"9. c #00B9EA",
"0. c #00BAEA",
"q. c #00B9EC",
"w. c #00BBEE",
"e. c #00BDF1",
"r. c #00BEF2",
"t. c #00BFF3",
"y. c #00BFF5",
"u. c #00C3F7",
"i. c #00C3F9",
"p. c #00C4F8",
"a. c #00C4F9",
"s. c #00C7FE",
"d. c #00C8FC",
"f. c #00C9FD",
"g. c #01C9FD",
"h. c #00CAFD",
"j. c #00C8FE",
"k. c #00C9FE",
"l. c #00C8FF",
"z. c #01C8FF",
"x. c #00C9FF",
"c. c #02C9FF",
"v. c #00CAFF",
"b. c #01CAFF",
"n. c #00CBFF",
/* pixels */
"& & & & & & & & & & & & & & & & & & & & & & & & & & & & & & & & & & & & & & & & & & & & & & & & & & & & & & & & & & & & & & & & ",
"& & & & & & & & & & & & & & & & & & & & & & & & & & & & & & & & & & & & & & & & & & & & & & & & & & & & & & & & & & & & & & & & ",
"& & & & & & & & & & & & & & & & & & & & & & & & & & & & & & & & & & & & & & & & & & & & & & & & & & & & & & & & & & & & & & & & ",
"& & & & & & & & & - & & & & & & & & & & & & & & & & & & & & & & & & & & & & & & & & & & & & & & & & & & & & & & & & & & & & & & ",
"& & & & & & & & & & & & & & & & & & & & & & & & & & & & & & & & & & & & & & & & & & & & & & & & & & & & & & & & & & & & & & & & ",
"& & & & & & & & & X & & & & & & & & & & & & & & & & & & & & & & & & & & & & & & & & & & & & & & & & & & & & & & & & & & & & & & ",
"& & & & & & & & & & & & & & & & & & & & & & & & & & & & & & & & & & & & & & & & & & & & & & & & & & & & & & & & & & & & & & & & ",
"& & & & & & & & - i T ! ^ T e & & & & & & & & & & & & & & & & & & & & & & & & & & & & & & & & & & & & & & & & & & & & & & & & & ",
"& & & & & & & e } x.x.x.x.x.x.] i X & & & X & & & & X & & & & & & & & & & & & & & X & & & & v @.@.@.@.@.@.@.@.@.@.@.@.} & - X & ",
"& & & & & - B u.x.x.x.x.x.x.x.x.t.M & & - & & & & & & & & & & & & & & & & & & & X & X & & & H x.x.x.x.x.x.x.x.x.x.x.x.3.& & & & ",
"& & & X & h x.x.x.x.x.x.x.x.x.x.x.x.W & & - & & - & & X & & & & & & & & & & & & & & & & & & H x.x.x.x.x.x.x.x.x.x.x.x.<.& & & & ",
"& & & & & *.x.x.x.x.x.x.x.x.x.x.x.x.x.] & X & & & & - & & & & & & & & & & & & & & & & & & & H x.x.x.x.x.x.x.x.x.x.x.x.1.& & X & ",
"& & & & k x.x.x.x.x.x.x.x.x.x.x.x.x.x.x. .& & & X & & - & & & X & & & & & & & & & & & & - & H x.x.x.x.x.x.x.x.x.x.x.x.<.& & & & ",
"- & & X ( x.x.x.x.x.x.x.x.x.x.x.x.x.x.x.x.&.6 & & & & & - & & X & & & & & & & & & & & & & & H x.x.x.x.x.x.x.x.x.x.x.x.1.X & & & ",
"X X & & X.x.x.x.x.x.x.x.x.x.x.x.x.x.x.x.x.x.,.0 & & & & & & & & & & & & & & & & & & & & & & H x.x.x.x.x.x.x.x.x.x.x.x.1.& & & & ",
"& & - & %.x.x.x.x.x.x.x.x.x.x.x.x.x.x.x.x.x.x.7.a X & & & - & X & & & & & & & & & & & & & & H x.x.x.x.x.x.x.x.x.x.x.x.1.& & - & ",
"& & & & =.x.x.x.x.x.x.x.x.x.x.x.x.x.x.x.x.x.x.x.t.l & & & X & & & & & & & - & & & & & & & & H x.x.x.x.x.x.x.x.x.x.x.x.1.& & & & ",
"& & & & =.x.x.x.x.x.x.x.x.x.x.x.x.x.x.x.x.x.x.x.x.p.c - X & & X & & & & & & & & & & & & & & H x.x.x.x.x.x.x.x.x.x.x.x.1.& & & & ",
"& & & & =.x.x.x.x.x.x.x.x.x.x.x.x.x.x.x.x.x.x.x.x.x.x.H & & & & - & - X X & & & & & & & & & H x.x.x.x.x.x.x.x.x.x.x.x.1.& & & & ",
"& & & & =.x.x.x.x.x.x.x.x.x.x.x.x.x.x.x.x.x.x.x.x.x.x.x.^ & & & & & & & & X & X & & & & & & H x.x.x.x.x.x.x.x.x.x.x.x.1.& & & & ",
"& & & & =.x.x.x.x.x.x.x.x.x.x.x.x.x.x.x.x.x.x.x.x.x.x.x.x.] - - & - & & - X & & & & & & & & H x.x.x.x.x.x.x.x.x.x.x.x.1.& & & & ",
"& & & & =.x.x.x.x.x.x.x.x.x.x.x.x.x.x.x.x.x.x.x.x.x.x.x.x.x.o., & & & & & & & & & & & & & & H x.x.x.x.x.x.x.x.x.x.x.x.1.& & & & ",
"& & & & =.x.x.x.x.x.x.x.x.x.x.x.x.x.x.x.x.x.x.x.x.x.x.x.x.x.x.;.6 & & & & & & X & & & & & & H x.x.x.x.x.x.x.x.x.x.x.x.1.& & & & ",
"& & & & =.x.x.x.x.x.x.x.x.x.x.x.x.x.x.x.x.x.x.x.x.x.x.x.x.x.x.x.<.t & & & & & & & & & & & & H x.x.x.x.x.x.x.x.x.x.x.x.1.& & & & ",
"& & & & =.x.x.x.x.x.x.x.x.x.x.x.x.x.x.x.x.x.x.x.x.x.x.x.x.x.x.x.x.0.d - & & & X & & & & & & I x.x.x.x.x.x.x.x.x.x.x.x.1.& & & & ",
"& & & & =.x.x.x.x.x.x.x.x.x.x.x.x.x.x.x.x.x.x.x.x.x.x.x.x.x.x.x.x.x.y.h & & & X & - & X & & H x.x.x.x.x.x.x.x.x.x.x.x.1.& & & & ",
"& & & & =.x.x.x.x.x.x.x.x.x.x.x.x.x.x.x.x.x.x.x.x.x.x.x.x.x.x.x.x.x.x.i.M & & & & - & & & - H x.x.x.x.x.x.x.x.x.x.x.x.1.& & & & ",
"& & & & =.x.x.x.x.x.x.x.x.x.x.x.x.5.x.x.x.x.x.x.x.x.x.x.x.x.x.x.x.x.x.x.x.U X X - & & & & & H x.x.x.x.x.x.x.x.x.x.x.x.1.& & & & ",
"& & & & =.x.x.x.x.x.x.x.x.x.x.x.x.S ( x.x.x.x.x.x.x.x.x.x.x.x.x.x.x.x.x.x.x.( & + & & & - & H x.x.x.x.x.x.x.x.x.x.x.x.1.& & & & ",
"& & & & =.x.x.x.x.x.x.x.x.x.x.x.x.S & Y s.x.x.x.x.x.x.x.x.x.x.x.x.x.x.x.x.x.x.} - X & & & & H x.x.x.x.x.x.x.x.x.x.x.x.1.& & & & ",
"& & & & =.x.x.x.x.x.x.x.x.x.x.x.x.S & & n i.x.x.x.x.x.x.x.x.x.x.x.x.x.x.x.x.x.x.+.3 & & & & H x.x.x.x.x.x.x.x.x.x.x.x.1.& & & & ",
"& & & & =.x.x.x.x.x.x.x.x.x.x.x.x.S & & & h y.x.x.x.x.x.x.x.x.x.x.x.x.x.x.x.x.x.x.>.9 & & & H x.x.x.x.x.x.x.x.x.x.x.x.1.& & & & ",
"& & & & =.x.x.x.x.x.x.x.x.x.x.x.x.S & - & & d 0.x.x.x.x.x.x.x.x.x.x.x.x.x.x.x.x.x.x.5.i & & H x.x.x.x.x.x.x.x.x.x.x.x.1.& & & & ",
"& & & & =.x.x.x.x.x.x.x.x.x.x.x.x.S X & & - & t <.x.x.x.x.x.x.x.x.x.x.x.x.x.x.x.x.x.x.w.s & H x.x.x.x.x.x.x.x.x.x.x.x.1.& & & & ",
"& & & & =.x.x.x.x.x.x.x.x.x.x.x.x.S & X - & & & 8 ;.x.x.x.x.x.x.x.x.x.x.x.x.x.x.x.x.x.x.y.z H x.x.x.x.x.x.x.x.x.x.x.x.1.& & & & ",
"& & & & =.x.x.x.x.x.x.x.x.x.x.x.x.S & & - & X & - 3 X.x.x.x.x.x.x.x.x.x.x.x.x.x.x.x.x.x.x.x.X.x.x.x.x.x.x.x.x.x.x.x.x.1.& & & & ",
"& & & & =.x.x.x.x.x.x.x.x.x.x.x.x.S & & & & & & & - - ] x.x.x.x.x.x.x.x.x.x.x.x.x.x.x.x.x.x.x.x.x.x.x.x.x.x.x.x.x.x.x.1.& & & & ",
"& & & & =.x.x.x.x.x.x.x.x.x.x.x.x.S & & & & - & & & & & ! x.x.x.x.x.x.x.x.x.x.x.x.x.x.x.x.x.x.x.x.x.x.x.x.x.x.x.x.x.x.1.& & & & ",
"& & & & =.x.x.x.x.x.x.x.x.x.x.x.x.S & & X & & & & & & & - H x.x.x.x.x.x.x.x.x.x.x.x.x.x.x.x.x.x.x.x.x.x.x.x.x.x.x.x.x.1.& & & & ",
"& & & & =.x.x.x.x.x.x.x.x.x.x.x.x.S & & & & & & & & & & & & v p.x.x.x.x.x.x.x.x.x.s.x.x.x.x.x.x.x.x.x.x.x.x.x.x.x.x.x.1.& & & & ",
"& & & & =.x.x.x.x.x.x.x.x.x.x.x.x.S & & & & & & & & & & & & & f t.x.x.x.x.x.x.x.x.x.x.x.x.x.x.x.x.x.x.x.x.x.x.x.x.x.x.1.& & & & ",
"& & & & =.x.x.x.x.x.x.x.x.x.x.x.x.S & & & & & & & & & X & & - & a 8.x.x.x.x.x.x.x.x.x.x.x.x.x.x.x.x.x.x.x.x.x.x.x.x.x.1.& & & & ",
"& & & & =.x.x.x.x.x.x.x.x.x.x.x.x.S & & & & & & & & & & & & & & & 0 ,.x.x.x.x.x.x.x.x.x.x.x.x.x.x.x.x.x.x.x.x.x.x.x.x.1.& & & & ",
"& & & & =.x.x.x.x.x.x.x.x.x.x.x.x.S & & & & & & & - & & X & & & X & 6 &.x.x.x.x.x.x.x.x.x.x.x.x.x.x.x.x.x.x.x.x.x.x.x.1.& & & & ",
"& & & & =.x.x.x.x.x.x.x.x.x.x.x.x.S & & & & & & X & & X & & X & & & & 3  .x.x.x.x.x.x.x.x.x.x.x.x.x.x.x.x.x.x.x.x.x.x.1.& & & & ",
"& & & & =.x.x.x.x.x.x.x.x.x.x.x.x.S & & & & & & & & & & & & & & & X & & & _ x.x.x.x.x.x.x.x.x.x.x.x.x.x.x.x.x.x.x.x.x.5.& & & & ",
"& & & & =.x.x.x.x.x.x.x.x.x.x.x.x.S & & & & & & & & & & - & & & & & X & X - W x.x.x.x.x.x.x.x.x.x.x.x.x.x.x.x.x.x.x.x.1.& - & X ",
"& & & & =.x.x.x.x.x.x.x.x.x.x.x.x.S & & & & & & X & & X & & X & & & & & - & & S x.x.x.x.x.x.x.x.x.x.x.x.x.x.x.x.x.x.x.:.& & & X ",
"& X & X =.x.x.x.x.x.x.x.x.x.x.x.x.S & & & & & & & & & & & & & & & & & & & & & & x p.x.x.x.x.x.x.x.x.x.x.x.x.x.x.x.x.x.+.& & & & ",
"& & - X =.x.x.x.x.x.x.x.x.x.x.x.x.S & X & & & & & & & & & & & & & & & & & & & & & g t.x.x.x.x.x.x.x.x.x.x.x.x.x.x.x.x.` & & & & ",
"& & & & =.x.x.x.x.x.x.x.x.x.x.x.x.S & - & & - & & & & & & & & & & & & & & & & & & & p 6.x.x.x.x.x.x.x.x.x.x.x.x.x.x.x.N & & & + ",
"& X & & =.x.x.x.x.x.x.x.x.x.x.x.x.S & & & & & & & & & & & & & & & & & & & & & & & & & 0 ,.x.x.x.x.x.x.x.x.x.x.x.x.x.w., & & & & ",
"& & & & =.x.x.x.x.x.x.x.x.x.x.x.x.S & & & & & & & & & & & & & & & & & & & & & & & & & & 5 @.x.x.x.x.x.x.x.x.x.x.x.x.S & X & & & ",
"& & & & =.x.x.x.x.x.x.x.x.x.x.x.x.S & & & & & & & & & & & & & & & & & & & & & & - & & - & & _ x.x.x.x.x.x.x.x.x.x.` & X & X & & ",
"X & & X =.x.x.x.x.x.x.x.x.x.x.x.x.S & & & & - & & & & & & & & & & & & & & & & & & X & & & & X S 0.x.x.x.x.x.x.p.^ X - & & & & - ",
"& & & & & & & & & & & & & & & & X & & & X & & & & & & & & & & & & & & & & & & & & & & & & & & & 3 H o.@.@.| S 3 & & & X - & & & ",
"& & & & & & & & & & & & & & & & & & & & & & & & & & & & & & & & & & & & & & & & & & & & & & & & & & & & & & & & & & & & & & & & ",
"& & & & & & & & & & & & & & & & & & & & & & & & & & & & & & & & & & & & & & & & & & & & & & & & & & & & & & & & & & & & & & & & ",
"& & & & & & & & & & & & & & & & & & & & & & & & & & & & & & & & & & & & & & & & & & & & & & & & & & & & & & & & & & & & & & & & ",
"& & & & & & & & & & & & & & & & & & & & & & & & & & & & & & & & & & & & & & & & & & & & & & & & & & & & & & & & & & & & & & & & ",
"& & & & & & & & & & & & & & & & & & & & & & & & & & & & & & & & & & & & & & & & & & & & & & & & & & & & & & & & & & & & & & & & ",
"& & & & & & & & & & & & & & & & & & & & & & & & & & & & & & & & & & & & & & & & & & & & & & & & & & & & & & & & & & & & & & & & ",
"& & & & & & & & & & & & & & & & & & & & & & & & & & & & & & & & & & & & & & & & & & & & & & & & & & & & & & & & & & & & & & & & ",
"& & & & & & & & & & & & & & & & & & & & & & & & & & & & & & & & & & & & & & & & & & & & & & & & & & & & & & & & & & & & & & & & "
};
