/* XPM */
static char * so_xpm[] = {
"64 64 159 2 ",
"   c #001F24",
".  c #001E26",
"X  c #001F26",
"o  c #011F27",
"O  c #001F28",
"+  c #011F29",
"@  c #002025",
"#  c #012025",
"$  c #002125",
"%  c #002027",
"&  c #002127",
"*  c #002128",
"=  c #002029",
"-  c #022028",
";  c #002228",
":  c #00212A",
">  c #00222B",
",  c #02232C",
"<  c #00242D",
"1  c #00252E",
"2  c #00272E",
"3  c #00272F",
"4  c #012730",
"5  c #002832",
"6  c #002935",
"7  c #002E38",
"8  c #012D3A",
"9  c #002E3B",
"0  c #00303C",
"q  c #00323D",
"w  c #01313F",
"e  c #003441",
"r  c #003442",
"t  c #003642",
"y  c #003744",
"u  c #003845",
"i  c #003A48",
"p  c #013B49",
"a  c #013C4C",
"s  c #003E4D",
"d  c #003D4F",
"f  c #004252",
"g  c #004353",
"h  c #004454",
"j  c #004457",
"k  c #014558",
"l  c #024558",
"z  c #014958",
"x  c #01485C",
"c  c #00495C",
"v  c #004A5D",
"b  c #004B5E",
"n  c #024B5E",
"m  c #004C5C",
"M  c #014C5F",
"N  c #004D5F",
"B  c #014C61",
"V  c #004D61",
"C  c #014F65",
"Z  c #005267",
"A  c #005268",
"S  c #015368",
"D  c #00546C",
"F  c #01576E",
"G  c #005A6F",
"H  c #005C75",
"J  c #015D76",
"K  c #005F78",
"L  c #006079",
"P  c #00627C",
"I  c #00627D",
"U  c #00647E",
"Y  c #006885",
"T  c #006986",
"R  c #016A87",
"E  c #006B87",
"W  c #026B89",
"Q  c #006C89",
"!  c #006E89",
"~  c #006D8A",
"^  c #01708E",
"/  c #007390",
"(  c #007593",
")  c #007692",
"_  c #007792",
"`  c #007694",
"'  c #017795",
"]  c #007596",
"[  c #00789A",
"{  c #007A9B",
"}  c #007B9C",
"|  c #017D9F",
" . c #007E9F",
".. c #007FA0",
"X. c #007FA2",
"o. c #0080A3",
"O. c #0082A6",
"+. c #0088AC",
"@. c #0089AE",
"#. c #008CB0",
"$. c #008DB1",
"%. c #008EB1",
"&. c #008DB3",
"*. c #008EB4",
"=. c #0091B6",
"-. c #0091B8",
";. c #0094BC",
":. c #0095BD",
">. c #0196BE",
",. c #0097BE",
"<. c #009BC4",
"1. c #009DC6",
"2. c #019EC9",
"3. c #009FC9",
"4. c #01A0CA",
"5. c #01A2CE",
"6. c #00A5CF",
"7. c #00A2D1",
"8. c #00A6D2",
"9. c #00A6D3",
"0. c #00A7D3",
"q. c #00AAD6",
"w. c #01A9D8",
"e. c #00AAD8",
"r. c #00AEDD",
"t. c #01B0DF",
"y. c #00B0E1",
"u. c #00B1E1",
"i. c #00B2E2",
"p. c #02B2E3",
"a. c #02B3E5",
"s. c #00B6E8",
"d. c #00B7E9",
"f. c #00BAEB",
"g. c #00B9EC",
"h. c #00BBEE",
"j. c #00BCEE",
"k. c #00BDEF",
"l. c #01BCF1",
"z. c #00BDF1",
"x. c #00BFF5",
"c. c #00BFF6",
"v. c #00C3F7",
"b. c #01C3F8",
"n. c #00C3F9",
"m. c #00C5FA",
"M. c #00C8FC",
"N. c #00C9FD",
"B. c #01C9FD",
"V. c #00CAFD",
"C. c #00C8FE",
"Z. c #00C9FE",
"A. c #00C8FF",
"S. c #01C8FF",
"D. c #00C9FF",
"F. c #01CAFE",
"G. c #00CAFF",
"H. c #01CAFF",
"J. c #00CBFF",
/* pixels */
"% % % % % % % % % % % % % % % % % % % % % % % % % % % % % % % % % % % % % % % % % % % % % % % % % % % % % % % % % % % % % % % % ",
"% % % % % % % % % % % % % % % % % % % % % % % % % % % % % % % % % % % % % % % % % % % % % % % % % % % % % % % % % % % % % % % % ",
"% % % % % % % % % % % % % % % % % % % % % % % % % % % % % % % % % % % % % % % % % % % % % % % % % % % % % % % % % % % % % % % % ",
"% % % % % % % % % % % % % % % % % % % % % % % % % % % % % % % % % % % % % % % % % % % % % % % % % % % % % % % % % % % % % % % % ",
"% % % % % % % % % % % % % % % % % % % % % % % % % % % % % % % % % % % % % % % % % % % % % % % % % % % % % % % % % % % % % % % % ",
"% % % % % % % % % % % % % % % % % % % % % % % % % % % % % % % % % % % % % % % % % % % % % % % % % % % % % % % % % % % % % % % % ",
"% % % % % % % % % % % % % % % % % % % % % % % % % % % % % % % % % % % % % % % % % % % % % % % % % % % % % % % % % % % % % % % % ",
"% % % % % % % % % % % % % % % % % % % % % % % % % % % % % % % % % % % % % % % % % % % % % % % % % % % % % % % % % % % % % % % % ",
"% = % % % % % o % o % % % % % % % % % % o % % % % % % % % % % % % % % % % % % % % % % % % % % % % % % % % % % % o % % % % O % % ",
"= % % = % % % = % % % % = % % % % % % o % % % % % % % % % % % % % % % % % % % % % % % % % % % % % % % % % % % % % % % % % % % o ",
"% % = % = % % % = % = % % % % % % t V F L T / ` ` ` ` ` ` ` ` ` ` ` ` ` ` ` ` ` ` ` ` ` ` ` ` ` ` ` ` ` ` ` ` ` ` ` ) ` a % % % ",
"% % % o % % % % % % % % % N } 1.z.D.D.D.D.D.D.D.D.D.D.D.D.D.D.D.D.D.D.D.D.D.D.D.D.D.D.D.D.D.D.D.D.D.D.D.D.D.D.D.D.D.D.5.% % % % ",
"% % % % % % % % % % i @.c.D.D.D.D.D.D.D.D.D.D.D.D.D.D.D.D.D.D.D.D.D.D.D.D.D.D.D.D.D.D.D.D.D.D.D.D.D.D.D.D.D.D.D.D.D.f.q % = % % ",
"% % % % = % % % = ~ n.D.D.D.D.D.D.D.D.D.D.D.D.D.D.D.D.D.D.D.D.D.D.D.D.D.D.D.D.D.D.D.D.D.D.D.D.D.D.D.D.D.D.D.D.D.D.D.h o % % % % ",
"% % % % % % % 1 1.D.D.D.D.D.D.D.D.D.D.D.D.D.D.D.D.D.D.D.D.D.D.D.D.D.D.D.D.D.D.D.D.D.D.D.D.D.D.D.D.D.D.D.D.D.D.D.D.W % % % % % % ",
"% % % % % % 1 1.D.D.D.D.D.D.D.D.D.D.D.D.D.D.D.D.D.D.D.D.D.D.D.D.D.D.D.D.D.D.D.D.D.D.D.D.D.D.D.D.D.D.D.D.D.D.D.D.;.% % % % % % % ",
"% % % % % % $.D.D.D.D.D.D.D.D.D.D.D.D.D.D.D.D.D.D.D.D.D.D.D.D.D.D.D.D.D.D.D.D.D.D.D.D.D.D.D.D.D.D.D.D.D.D.D.D.y.6 = % % o % % % ",
"% % % O % b D.D.D.D.D.D.D.D.D.D.D.D.D.D.D.D.D.D.D.D.D.D.D.D.D.D.D.D.D.D.D.D.D.D.D.D.D.D.D.D.D.D.D.D.D.D.D.D.n.a = % % % o % % % ",
"% % % % % y.D.D.D.D.D.D.D.D.D.D.D.D.D.D.D.D.D.D.D.D.D.D.D.D.D.D.D.D.D.D.D.D.D.D.D.D.D.D.D.D.D.D.D.D.D.D.D.D.L o % % % % % % % % ",
"% % o % h D.D.D.D.D.D.D.D.D.D.D.D.D.D.D.D.D.D.D.D.D.D.D.D.D.D.D.D.D.D.D.D.D.D.D.D.D.D.D.D.D.D.D.D.D.D.D.D.@.% % % % % % % % % % ",
"o % % % { D.D.D.D.D.D.D.D.D.D.D.D.D.D.D.D.D.D.D.D.D.D.D.D.D.D.D.D.D.D.D.D.D.D.D.D.D.D.D.D.D.D.D.D.D.D.D.w.1 % = o o % % % % % % ",
"% % % % <.D.D.D.D.D.D.D.D.D.D.D.D.D.D.D.g.7.3.3.3.3.3.3.3.3.3.3.3.3.3.3.3.3.3.3.3.3.3.3.3.3.3.3.3.3.3.3.t % % % % % % % % % % % ",
"% % % % 8.D.D.D.D.D.D.D.D.D.D.D.D.v.T 8 % o % % % % % % % % % % % % % % % % % % % % % % % % % % % % % % % % % % % % % % % % % % ",
"= % % % y.D.D.D.D.D.D.D.D.D.D.D.D.J % % % % % o % % % % % % % % % % % % % % % % % % % % % % % % % % o % % % % % % % % % % % % % ",
"o % % o r.D.D.D.D.D.D.D.D.D.D.D.D.a = % % % % % % % % % % % % % % % % % % % % % = = = % % % % % % % % % % % % % % % % o % % o % ",
"% % = % 4.D.D.D.D.D.D.D.D.D.D.D.D.V % % % % o % % % % % % % % % % % % % % % % % % % % % % % % % % o % = % = % % % % % % % % % % ",
"= % % % *.D.D.D.D.D.D.D.D.D.D.D.D.;.% % % % % % % % % % % % % % % % % % % % % % % % % % % % % % % % % % % % % = % o % o % % % % ",
"% % % % P D.D.D.D.D.D.D.D.D.D.D.D.D.y.J b b b b b b b b b b b b b b b b b b b b b b b b N b a q 4 % % % % % % % % = % % % % % o ",
"% % % % 8 D.D.D.D.D.D.D.D.D.D.D.D.D.D.D.D.D.D.D.D.D.D.D.D.D.D.D.D.D.D.D.D.D.D.D.D.D.D.D.D.D.D.D.D.c.8.$.~ q % % = % % % % = % % ",
"% % % % % $.D.D.D.D.D.D.D.D.D.D.D.D.D.D.D.D.D.D.D.D.D.D.D.D.D.D.D.D.D.D.D.D.D.D.D.D.D.D.D.D.D.D.D.D.D.D.D.D.3.G % % % % % o % % ",
"% % o o % t D.D.D.D.D.D.D.D.D.D.D.D.D.D.D.D.D.D.D.D.D.D.D.D.D.D.D.D.D.D.D.D.D.D.D.D.D.D.D.D.D.D.D.D.D.D.D.D.D.D.8.f % = o = o % ",
"o o % = % % U D.D.D.D.D.D.D.D.D.D.D.D.D.D.D.D.D.D.D.D.D.D.D.D.D.D.D.D.D.D.D.D.D.D.D.D.D.D.D.D.D.D.D.D.D.D.D.D.D.D.D.A % % % % % ",
"% % % % % % o T D.D.D.D.D.D.D.D.D.D.D.D.D.D.D.D.D.D.D.D.D.D.D.D.D.D.D.D.D.D.D.D.D.D.D.D.D.D.D.D.D.D.D.D.D.D.D.D.D.D.D.V % % % % ",
"% % % % % % % % N d.D.D.D.D.D.D.D.D.D.D.D.D.D.D.D.D.D.D.D.D.D.D.D.D.D.D.D.D.D.D.D.D.D.D.D.D.D.D.D.D.D.D.D.D.D.D.D.D.D.d.1 = % % ",
"% % % % % % % % % 5 } j.D.D.D.D.D.D.D.D.D.D.D.D.D.D.D.D.D.D.D.D.D.D.D.D.D.D.D.D.D.D.D.D.D.D.D.D.D.D.D.D.D.D.D.D.D.D.D.D.| % % % ",
"% % % % o % % % % % % o C o.w.D.D.D.D.D.D.D.D.D.D.D.D.D.D.D.D.D.D.D.D.D.D.D.D.D.D.D.D.D.D.D.D.D.D.D.D.D.D.D.D.D.D.D.D.D.z.% % % ",
"% % % = % % % % % % o % % % % 1 b F L T ) ` ) ` ` ` ` ` ` ` ` ` ` ` ` ` ` ` ` ` ) ` ` ` } -.a.D.D.D.D.D.D.D.D.D.D.D.D.D.D.C % % ",
"% % o % % % % % % % % % % % % % % % % % % % % % % % % % % % % % % % % % % % % % % % o = % % % A D.D.D.D.D.D.D.D.D.D.D.D.D.~ % = ",
"% % % % % % % % o % = % o % = % % o % % % % % % % % % % % % % % % % % % % % % % % % % % % % o % | D.D.D.D.D.D.D.D.D.D.D.D.X.% % ",
"= % % % % o % % % % % % % % % % % % % % % % % % % % % % % % % % % % % % % % % % % % % % % % % % J D.D.D.D.D.D.D.D.D.D.D.D.=.% % ",
"= % % % % % % o % % % % o o = % % % % % % % % % % % % % % % % % % % % % % % % % % % % % % % % % T D.D.D.D.D.D.D.D.D.D.D.D.$.% % ",
"% = % % % o % % O % % % % % % % % % % % % % % % % % % % % % % % % % % % % % % % % % o % % o % % 6.D.D.D.D.D.D.D.D.D.D.D.D.X.% % ",
"% % = % % % % % % % % k b b N b b b b b b b b b b b b b b b b b b b b b b b b b b b b N b b K 8.D.D.D.D.D.D.D.D.D.D.D.D.D.^ % % ",
"% % % o % % % % % o J D.D.D.D.D.D.D.D.D.D.D.D.D.D.D.D.D.D.D.D.D.D.D.D.D.D.D.D.D.D.D.D.D.D.D.D.D.D.D.D.D.D.D.D.D.D.D.D.D.D.Z % % ",
"% % % % % % % % % i n.D.D.D.D.D.D.D.D.D.D.D.D.D.D.D.D.D.D.D.D.D.D.D.D.D.D.D.D.D.D.D.D.D.D.D.D.D.D.D.D.D.D.D.D.D.D.D.D.D.m., % % ",
"% o % = % % % % 5 y.D.D.D.D.D.D.D.D.D.D.D.D.D.D.D.D.D.D.D.D.D.D.D.D.D.D.D.D.D.D.D.D.D.D.D.D.D.D.D.D.D.D.D.D.D.D.D.D.D.D.;.o % % ",
"% % % % % % % % ;.D.D.D.D.D.D.D.D.D.D.D.D.D.D.D.D.D.D.D.D.D.D.D.D.D.D.D.D.D.D.D.D.D.D.D.D.D.D.D.D.D.D.D.D.D.D.D.D.D.D.D.k % % o ",
"o % % % % % % ~ D.D.D.D.D.D.D.D.D.D.D.D.D.D.D.D.D.D.D.D.D.D.D.D.D.D.D.D.D.D.D.D.D.D.D.D.D.D.D.D.D.D.D.D.D.D.D.D.D.D.D.;.% % = % ",
"% % % = % = z D.D.D.D.D.D.D.D.D.D.D.D.D.D.D.D.D.D.D.D.D.D.D.D.D.D.D.D.D.D.D.D.D.D.D.D.D.D.D.D.D.D.D.D.D.D.D.D.D.D.D.g.t % % % o ",
"% % % % o 8 g.D.D.D.D.D.D.D.D.D.D.D.D.D.D.D.D.D.D.D.D.D.D.D.D.D.D.D.D.D.D.D.D.D.D.D.D.D.D.D.D.D.D.D.D.D.D.D.D.D.D.g.y % % = % % ",
"% % % o % 4.D.D.D.D.D.D.D.D.D.D.D.D.D.D.D.D.D.D.D.D.D.D.D.D.D.D.D.D.D.D.D.D.D.D.D.D.D.D.D.D.D.D.D.D.D.D.D.D.D.D.1.u % % % % = % ",
"% % % % { D.D.D.D.D.D.D.D.D.D.D.D.D.D.D.D.D.D.D.D.D.D.D.D.D.D.D.D.D.D.D.D.D.D.D.D.D.D.D.D.D.D.D.D.D.D.D.D.D.t.F % % % o o % % % ",
"= % % V D.D.D.D.D.D.D.D.D.D.D.D.D.D.D.D.D.D.D.D.D.D.D.D.D.D.D.D.D.D.D.D.D.D.D.D.D.D.D.D.D.D.D.D.D.D.D.n.@.b % o % % % % % % % % ",
"% % t c.D.D.D.D.D.D.D.D.D.D.D.D.D.D.D.D.D.D.D.D.D.D.D.D.D.D.D.D.D.D.D.D.D.D.D.D.D.D.D.D.j.y.q.3.O.P f % o o o % % % % % % % % = ",
"% % o % % % % % % % % % % % % % % % % % % % % % % % % % % % % % % % % % % % % % % O % o % % % % % % % % % % o = % % % % o % % = ",
"% % o % % o % o % % % % % % % % % % % % % % % % % % % % % % % % % % % % % % % % % % % % % % % % = % % = % % % = % % % % % o % % ",
"% % % % % % % % % % % % % % % % % % % % % % % % % % % % % % % % % % % % % % % % % % % % % % % % % % % % % % % % % % % % % % % % ",
"% % % % % % % % % % % % % % % % % % % % % % % % % % % % % % % % % % % % % % % % % % % % % % % % % % % % % % % % % % % % % % % % ",
"% % % % % % % % % % % % % % % % % % % % % % % % % % % % % % % % % % % % % % % % % % % % % % % % % % % % % % % % % % % % % % % % ",
"% % % % % % % % % % % % % % % % % % % % % % % % % % % % % % % % % % % % % % % % % % % % % % % % % % % % % % % % % % % % % % % % ",
"% % % % % % % % % % % % % % % % % % % % % % % % % % % % % % % % % % % % % % % % % % % % % % % % % % % % % % % % % % % % % % % % ",
"% % % % % % % % % % % % % % % % % % % % % % % % % % % % % % % % % % % % % % % % % % % % % % % % % % % % % % % % % % % % % % % % ",
"% % % % % % % % % % % % % % % % % % % % % % % % % % % % % % % % % % % % % % % % % % % % % % % % % % % % % % % % % % % % % % % % ",
"% % % % % % % % % % % % % % % % % % % % % % % % % % % % % % % % % % % % % % % % % % % % % % % % % % % % % % % % % % % % % % % % "
};
