/* XPM */
static char * we_xpm[] = {
"64 64 180 2 ",
"   c #001F24",
".  c #001E26",
"X  c #001F26",
"o  c #011F27",
"O  c #001F28",
"+  c #011F29",
"@  c #002025",
"#  c #012025",
"$  c #002125",
"%  c #002026",
"&  c #002027",
"*  c #002127",
"=  c #002226",
"-  c #002128",
";  c #002029",
":  c #022028",
">  c #00212A",
",  c #00222B",
"<  c #00242A",
"1  c #01232C",
"2  c #00252E",
"3  c #00262F",
"4  c #012732",
"5  c #002832",
"6  c #022833",
"7  c #002935",
"8  c #002A36",
"9  c #022A36",
"0  c #002C37",
"q  c #012D38",
"w  c #002D3A",
"e  c #002E3B",
"r  c #01313D",
"t  c #00323D",
"y  c #00323F",
"u  c #013240",
"i  c #003543",
"p  c #003744",
"a  c #003845",
"s  c #003C47",
"d  c #003A48",
"f  c #003B4B",
"g  c #013C4C",
"h  c #023D4D",
"j  c #003E4D",
"k  c #003D4F",
"l  c #003F50",
"z  c #024150",
"x  c #024152",
"c  c #014558",
"v  c #024558",
"b  c #004759",
"n  c #00475B",
"m  c #01485A",
"M  c #00485B",
"N  c #00495C",
"B  c #00485E",
"V  c #004B5E",
"C  c #004C60",
"Z  c #004D61",
"A  c #004E62",
"S  c #014E62",
"D  c #004F66",
"F  c #005065",
"G  c #005166",
"H  c #005267",
"J  c #015369",
"K  c #00566D",
"L  c #00566F",
"P  c #005971",
"I  c #005A72",
"U  c #025A72",
"Y  c #005D76",
"T  c #015D76",
"R  c #005E77",
"E  c #006079",
"W  c #00627B",
"Q  c #00637D",
"!  c #00637F",
"~  c #006380",
"^  c #006780",
"/  c #006782",
"(  c #006883",
")  c #006885",
"_  c #006C88",
"`  c #006C89",
"'  c #006E89",
"]  c #006F8B",
"[  c #026F8C",
"{  c #01708E",
"}  c #007390",
"|  c #007694",
" . c #007795",
".. c #007796",
"X. c #007797",
"o. c #00789A",
"O. c #01799B",
"+. c #007A9B",
"@. c #017C9E",
"#. c #007FA0",
"$. c #0080A3",
"%. c #0082A2",
"&. c #0082A4",
"*. c #0085A8",
"=. c #0084AA",
"-. c #0085AA",
";. c #0088AC",
":. c #0089AE",
">. c #008CB0",
",. c #018CB3",
"<. c #008DB3",
"1. c #008EB4",
"2. c #008FB4",
"3. c #0091B8",
"4. c #0094BC",
"5. c #0197BC",
"6. c #0196BE",
"7. c #0097BE",
"8. c #0099C2",
"9. c #009BC3",
"0. c #009BC4",
"q. c #009EC5",
"w. c #009DC8",
"e. c #019EC9",
"r. c #00A0CC",
"t. c #00A1CC",
"y. c #00A3CE",
"u. c #00A3D0",
"i. c #00A4D1",
"p. c #00A7D3",
"a. c #01A8D5",
"s. c #00AAD6",
"d. c #00ABD6",
"f. c #00ABD7",
"g. c #01A9D8",
"h. c #00AAD8",
"j. c #00ACDA",
"k. c #00ADDA",
"l. c #01ADDB",
"z. c #01ADDD",
"x. c #00AEDD",
"c. c #00B0E1",
"v. c #00B1E1",
"b. c #00B1E3",
"n. c #00B2E2",
"m. c #00B3E2",
"M. c #00B6E6",
"N. c #00B6E8",
"B. c #00B7E9",
"V. c #00B5EA",
"C. c #00BAEB",
"Z. c #01BCEF",
"A. c #00BDF1",
"S. c #00BEF2",
"D. c #00BFF3",
"F. c #00BDF4",
"G. c #01C0F4",
"H. c #01C0F6",
"J. c #00C2F7",
"K. c #00C1F8",
"L. c #00C3F9",
"P. c #00C4F8",
"I. c #00C5FA",
"U. c #01C6FB",
"Y. c #00C5FC",
"T. c #00C7FE",
"R. c #00C8FC",
"E. c #00C9FD",
"W. c #01C9FD",
"Q. c #00CAFD",
"!. c #00C8FE",
"~. c #00C9FE",
"^. c #00C8FF",
"/. c #01C8FF",
"(. c #00C9FF",
"). c #02C9FF",
"_. c #01CAFE",
"`. c #00CAFF",
"'. c #01CAFF",
"]. c #00CBFF",
/* pixels */
"& & & & & & & & & & & & & & & & & & & & & & & & & & & & & & & & & & & & & & & & & & & & & & & & & & & & & & & & & & & & & & & & ",
"& & & & & & & & & & & & & & & & & & & & & & & & & & & & & & & & & & & & & & & & & & & & & & & & & & & & & & & & & & & & & & & & ",
"& & & & & & & & & & & & & & & & & & & & & & & & & & & & & & & & & & & & & & & & & & & & & & & & & & & & & & & & & & & & & & & & ",
"& & & & & & & & & & & & & & & & & & & & & & & & & & & & & & & & & & & & & & & & & & & & & & & & & & & & & & & & & & & & & & & & ",
"& & & & & & & & & & & & & & & & & & & & & & & & & & & & & & & & & & & & & & & & & & & & & & & & & & & & & & & & & & & & & & & & ",
"& & & & & & & & & & & & & & & & & & & & & & & & & & & & & & & & & & & & & & & & & & & & & & & & & & & & & & & & & & & & & & & & ",
"& & & & & & & & & & & & & & & & & & & & & & & & & & & & & & & & & & & & & & & & & & & & & & & & & & & & & & & & & & & & & & & & ",
"& & & & & & & & & & & & & & & & & & & & & & & & & & & & & & & & & & & & & & & & & & & & & & & & & & & & & & & & & & & & & & & & ",
"& & & & & & & & & & & & & & & & & & & & & & & & & & & & & & & & & & & & & & & & & & & & & & & & & & & & & & & & & & & & & & & & ",
"& & & & & & & & & & & & & & & & & & & & & & & & & & & & & & & & & & & & & & & & & & & & & & & & & & & & & & & & & & & & & & & & ",
"& & & & & & & & & & & & & & & & & & & & & & & & & & & & & & & & & & & & & & & & & & & & & & & & & & & & & & & & & & & & & & & & ",
"& & & & & & & & & & & & & & & & & & & & & & & & & & & & & & & & & & & & & & & & & & & & & & & & & & & & & & & & & & & & & & & & ",
"& & & & & & & & & & & & & & & & & & & & & & & & & & & & & & & & & & & & & & & & & & & & & & & & & & & & & & & & & & & & & & & & ",
"& & & & & & & & & & & & & & & & & & & & & & & & & & & & & & & & & & & & & & & & & & & & & & & & & & & & & & & & & & & & & & & & ",
"& & & & & & & & & & & & & & & & & & & & & & & & & & & & & & & & & & & & & & & & & & & & & & & & & & & & & & & & & & & & & & & & ",
"& & & & & & & & & & & & & & & & & & & & & & & & & & & & & & & & & & & & & & & & & & & & & & & & & & & & & & & & & & & & & & & & ",
"& & X & & & & & & & & X & & & & & & & & & & & & & & & & & 5 Q | | | G & & & X & & & & & & & & & X & & & & & & & & & X & & & & & ",
"& & & & Z (.(.(.(.(.(.(.(.(.5 X & & & & & & & & & & & & V Z.(.(.(.(.(.f.u & - & & & & & & & & & & & V (.(.(.(.(.(.(.(.l.X & & & ",
"& & & & 1 J.(.(.(.(.(.(.(.(.J & & & & & & & & & & & & s I.(.(.(.(.(.(.(.c.3 & X & & & & & & & & X & | (.(.(.(.(.(.(.(.+.& & & - ",
"& - & & & 6.(.(.(.(.(.(.(.(.$.& & & & & & & & & & & & i.(.(.(.(.(.(.(.(.(.$.& & & & & & & & & & & & i.(.(.(.(.(.(.(.(.c & & & & ",
"X & & & & Q (.(.(.(.(.(.(.(.x.& & & & & & & & & - & R (.(.(.(.(.(.(.(.(.(.(.i & & & & & & & & & X 8 T.(.(.(.(.(.(.(.D.& & - & & ",
"& & X & & r (.(.(.(.(.(.(.(.(.e & & & & & & & & & 1 V.(.(.(.(.(.(.(.(.(.(.(.1.& & & & & & & & & & K (.(.(.(.(.(.(.(.<.& - - & & ",
"& & & & X & h.(.(.(.(.(.(.(.(.E & & & & & & & & & ' (.(.(.(.(.(.(.(.(.(.(.(.(.d & & & & & & & & & *.(.(.(.(.(.(.(.(.I & & & & X ",
"& & & & X & +.(.(.(.(.(.(.(.(.1.& & & & & & & & 4 D.(.(.(.(.(.(.(.(.(.(.(.(.(.6.& & & & & & & & - M.(.(.(.(.(.(.(.I.5 & & & & & ",
"& & & & & & V (.(.(.(.(.(.(.(.F.& & & & & & & & +.(.(.(.(.(.(.(.(.(.(.(.(.(.(.(.g & X & & & X & p (.(.(.(.(.(.(.(.w.& & & & & & ",
"& & & & & & X D.(.(.(.(.(.(.(.(.x & & - & & & r I.(.(.(.(.(.(.(.(.(.(.(.(.(.(.(.9.& & & & & & & / (.(.(.(.(.(.(.(.' & & & & - & ",
"& & & & & & & <.(.(.(.(.(.(.(.(.' & & & & & & ;.(.(.(.(.(.(.(.(.(.(.(.(.(.(.(.(.(.c & & & & & & 6.(.(.(.(.(.(.(.(.d X & - & & & ",
"& & & & & & & R (.(.(.(.(.(.(.(.0.- - & & & d (.(.(.(.(.(.(.(.l.{ (.(.(.(.(.(.(.(.r.& & & & & & J.(.(.(.(.(.(.(.c.& & X & & & & ",
"& & - & & & & 0 (.(.(.(.(.(.(.(.J.& & & & & <.(.(.(.(.(.(.(.(.R 8 D.(.(.(.(.(.(.(.(.G & & - & c (.(.(.(.(.(.(.(.#.- & & & & & & ",
"O & - & & - & & r.(.(.(.(.(.(.(.(.V & & & g (.(.(.(.(.(.(.(.f.& X ) (.(.(.(.(.(.(.(.f.& & & & | (.(.(.(.(.(.(.(.Z & & & - & & & ",
"& & X X & & & X } (.(.(.(.(.(.(.(.| & & X 6.(.(.(.(.(.(.(.(.Z & & & c.(.(.(.(.T.(.(.(.I & X & r.(.(.(.(.(.(.(.J.- X & & & X & & ",
"& X & & & X & & x (.(.(.(.(.(.(.(.r.& & V (.(.(.(.(.(.(.(.r.& X & & R (.(.(.(.(.(.(.(.c.- - 3 T.(.(.(.(.(.(.(.3.& & - & & & & & ",
"& & & & & & & & - C.(.(.(.(.(.(.(.(.3 & i.(.(.(.(.(.(.(.(.c & X & & & l.(.(.(.(.(.(.(.(.I X Z (.(.(.(.(.(.(.(.R & & & & & & & & ",
"& & & & & & & & - ;.(.(.(.(.(.(.(.(.m m (.(.(.(.(.(.(.(.3.& & & & & & Z (.(.(.(.(.(.(.(.c.- | (.(.(.(.(.(.(.T.e & & & & & & & & ",
"& & & & & & & & & K (.(.(.(.(.(.(.(.' 6.(.(.(.(.(.(.(.(.i & & & - & & & 6.(.(.(.(.(.(.(.(.I q.(.(.(.(.(.(.(.u.& & & & & & & & & ",
"& & & & & & & & - 5 (.(.(.(.(.(.(.(.h.(.(.(.(.(.(.(.(.+.& & & & & & & & p (.(.(.(.(.(.(.(.x.J.(.(.(.(.(.(.(.{ & & & & & & & & & ",
"& & & & & & & & & & w.(.(.(.(.(.(.(.(.(.(.(.(.(.(.(.D.5 & & & & - & & & X @.(.(.(.(.(.(.(.(.(.(.(.(.(.(.(.(.l & & & & & & & & & ",
"& & & & & & & & O & ' (.(.(.(.(.(.(.(.(.(.(.(.(.(.(.~ & & & & & & & & & & 5 D.(.(.(.(.(.(.(.(.(.(.(.(.(.(.V.& & & & & & & & & & ",
"& & & & & & & & & & d (.(.(.(.(.(.(.(.(.(.(.(.(.(.x.& & & & & & & & & & & & / (.(.(.(.(.(.(.(.(.(.(.(.(.(.*.& - & & & & & & & & ",
"& & & & & & & & & & & V.(.(.(.(.(.(.(.(.(.(.(.(.(.V & & & & & & & & & & & & - c.(.T.(.(.(.(.(.(.(.(.(.(.(.G & & & & & & & & & & ",
"& & & & & & & & & & & $.(.(.(.(.(.(.(.(.(.(.(.(.6.& & & & & & & & - & - & & & D (.(.(.(.(.(.(.(.(.(.(.(.I.1 & & & & & & & & & & ",
"& & & & & & & & & & X G (.(.(.(.(.(.(.(.(.(.(.I.a & & & & & & & & & & X & & & & 9.(.(.(.(.(.(.(.(.(.(.(.6.& & & & & & & & & & & ",
"& & & & & & & & & & - < I.(.(.(.(.(.(.(.(.(.(.#.& & & X - & & & & & & & & & & & a I.(.(.(.(.(.(.(.(.(.(.~ & & & & & & & & & & & ",
"& & & & & & & & & - & & <.(.(.(.(.(.(.(.(.(.D.8 & & & & - & & & & & & & & & & & & &.(.(.(.(.(.(.(.(.(.(.e & & & & & & & & & & & ",
"& & & & & & & & X - & X g (.(.(.(.(.(.(.(.(.E X - - & & & & & - & X & X & & - O - 0 V.(.(.(.(.(.(.(.(.*.& & X - & & & & & & & & ",
"& & & & & & & & & - & & & ' (.(.(.(.(.(.(.;.& & & & & & & & & & & & & & & & & & & - c J.(.(.(.(.(.(.f.8 & & & & & & & & & & & & ",
"& & & & & & & & X & X & & & Q L.(.(.(.L.' & & & X & & X - & & & & & & & & & & - & & & g l.(.(.(.(.6.0 & & & X & & & & & & & & & ",
"& & & & & & & & & & & & & & X r R [ I e & & X & & & O X & X & & X & & & & & X & & & & & & Z ' ( V & & & & O & & & & & & & & & & ",
"& & & & & & & & & & & & & & & & & & & & & & & & & & & & & & & & & & & & & & & & & & & & & & & & & & & & & & & & & & & & & & & & ",
"& & & & & & & & & & & & & & & & & & & & & & & & & & & & & & & & & & & & & & & & & & & & & & & & & & & & & & & & & & & & & & & & ",
"& & & & & & & & & & & & & & & & & & & & & & & & & & & & & & & & & & & & & & & & & & & & & & & & & & & & & & & & & & & & & & & & ",
"& & & & & & & & & & & & & & & & & & & & & & & & & & & & & & & & & & & & & & & & & & & & & & & & & & & & & & & & & & & & & & & & ",
"& & & & & & & & & & & & & & & & & & & & & & & & & & & & & & & & & & & & & & & & & & & & & & & & & & & & & & & & & & & & & & & & ",
"& & & & & & & & & & & & & & & & & & & & & & & & & & & & & & & & & & & & & & & & & & & & & & & & & & & & & & & & & & & & & & & & ",
"& & & & & & & & & & & & & & & & & & & & & & & & & & & & & & & & & & & & & & & & & & & & & & & & & & & & & & & & & & & & & & & & ",
"& & & & & & & & & & & & & & & & & & & & & & & & & & & & & & & & & & & & & & & & & & & & & & & & & & & & & & & & & & & & & & & & ",
"& & & & & & & & & & & & & & & & & & & & & & & & & & & & & & & & & & & & & & & & & & & & & & & & & & & & & & & & & & & & & & & & ",
"& & & & & & & & & & & & & & & & & & & & & & & & & & & & & & & & & & & & & & & & & & & & & & & & & & & & & & & & & & & & & & & & ",
"& & & & & & & & & & & & & & & & & & & & & & & & & & & & & & & & & & & & & & & & & & & & & & & & & & & & & & & & & & & & & & & & ",
"& & & & & & & & & & & & & & & & & & & & & & & & & & & & & & & & & & & & & & & & & & & & & & & & & & & & & & & & & & & & & & & & ",
"& & & & & & & & & & & & & & & & & & & & & & & & & & & & & & & & & & & & & & & & & & & & & & & & & & & & & & & & & & & & & & & & ",
"& & & & & & & & & & & & & & & & & & & & & & & & & & & & & & & & & & & & & & & & & & & & & & & & & & & & & & & & & & & & & & & & ",
"& & & & & & & & & & & & & & & & & & & & & & & & & & & & & & & & & & & & & & & & & & & & & & & & & & & & & & & & & & & & & & & & ",
"& & & & & & & & & & & & & & & & & & & & & & & & & & & & & & & & & & & & & & & & & & & & & & & & & & & & & & & & & & & & & & & & "
};
